<svg width="22" height="14" viewBox="0 0 22 14" fill="none" xmlns="http://www.w3.org/2000/svg">
<path d="M2.00002 0.000100007C1.86751 -0.00177404 1.73595 0.0227073 1.61298 0.072121C1.49001 0.121535 1.37809 0.194895 1.28372 0.28794C1.18935 0.380984 1.11441 0.491857 1.06327 0.614114C1.01212 0.736371 0.985779 0.867575 0.985779 1.0001C0.985779 1.13263 1.01212 1.26383 1.06327 1.38609C1.11441 1.50834 1.18935 1.61922 1.28372 1.71226C1.37809 1.8053 1.49001 1.87867 1.61298 1.92808C1.73595 1.97749 1.86751 2.00197 2.00002 2.0001H20C20.1325 2.00197 20.2641 1.97749 20.3871 1.92808C20.51 1.87867 20.622 1.8053 20.7163 1.71226C20.8107 1.61922 20.8856 1.50834 20.9368 1.38609C20.9879 1.26383 21.0143 1.13263 21.0143 1.0001C21.0143 0.867575 20.9879 0.736371 20.9368 0.614114C20.8856 0.491857 20.8107 0.380984 20.7163 0.28794C20.622 0.194895 20.51 0.121535 20.3871 0.072121C20.2641 0.0227073 20.1325 -0.00177404 20 0.000100007H2.00002ZM2.00002 6.0001C1.86751 5.99823 1.73595 6.02271 1.61298 6.07212C1.49001 6.12153 1.37809 6.1949 1.28372 6.28794C1.18935 6.38098 1.11441 6.49186 1.06327 6.61411C1.01212 6.73637 0.985779 6.86758 0.985779 7.0001C0.985779 7.13263 1.01212 7.26383 1.06327 7.38609C1.11441 7.50834 1.18935 7.61922 1.28372 7.71226C1.37809 7.8053 1.49001 7.87867 1.61298 7.92808C1.73595 7.97749 1.86751 8.00197 2.00002 8.0001H20C20.1325 8.00197 20.2641 7.97749 20.3871 7.92808C20.51 7.87867 20.622 7.8053 20.7163 7.71226C20.8107 7.61922 20.8856 7.50834 20.9368 7.38609C20.9879 7.26383 21.0143 7.13263 21.0143 7.0001C21.0143 6.86758 20.9879 6.73637 20.9368 6.61411C20.8856 6.49186 20.8107 6.38098 20.7163 6.28794C20.622 6.1949 20.51 6.12153 20.3871 6.07212C20.2641 6.02271 20.1325 5.99823 20 6.0001H2.00002ZM2.00002 12.0001C1.86751 11.9982 1.73595 12.0227 1.61298 12.0721C1.49001 12.1215 1.37809 12.1949 1.28372 12.2879C1.18935 12.381 1.11441 12.4919 1.06327 12.6141C1.01212 12.7364 0.985779 12.8676 0.985779 13.0001C0.985779 13.1326 1.01212 13.2638 1.06327 13.3861C1.11441 13.5083 1.18935 13.6192 1.28372 13.7123C1.37809 13.8053 1.49001 13.8787 1.61298 13.9281C1.73595 13.9775 1.86751 14.002 2.00002 14.0001H20C20.1325 14.002 20.2641 13.9775 20.3871 13.9281C20.51 13.8787 20.622 13.8053 20.7163 13.7123C20.8107 13.6192 20.8856 13.5083 20.9368 13.3861C20.9879 13.2638 21.0143 13.1326 21.0143 13.0001C21.0143 12.8676 20.9879 12.7364 20.9368 12.6141C20.8856 12.4919 20.8107 12.381 20.7163 12.2879C20.622 12.1949 20.51 12.1215 20.3871 12.0721C20.2641 12.0227 20.1325 11.9982 20 12.0001H2.00002Z" fill="black"/>
</svg>
