<svg xmlns="http://www.w3.org/2000/svg" viewBox="0 0 11.7 19.2">
<g>
	<g>
		<path d="M9,15.3c-0.1,0-0.3,0-0.4-0.1l-1.6-1H4.6l-1.6,1c-0.3,0.2-0.7,0.1-0.9-0.1c0,0-1.2-1.2-1.9-2.7c-0.9-1.8,1.4-4.3,1.9-4.8
			c0,0,0,0,0,0c0-0.7,0-1.5,0.1-2.1c0.7-3,2.9-5.2,3-5.3c0.3-0.3,0.8-0.3,1.1,0c0.1,0.1,2.3,2.3,3,5.3c0.2,0.6,0.2,1.4,0.1,2.1
			c0,0,0,0,0,0c0.5,0.5,2.8,2.9,1.9,4.8c-0.8,1.5-1.9,2.6-1.9,2.7C9.4,15.2,9.2,15.3,9,15.3z M8.2,13.2l0.7,0.4
			c0.3-0.4,0.9-1.1,1.2-1.8c0.2-0.4-0.3-1.3-0.9-2.1C8.9,11.1,8.5,12.4,8.2,13.2z M2.4,9.6c-0.6,0.8-1.1,1.7-0.9,2.1
			c0.4,0.8,0.9,1.4,1.2,1.8l0.7-0.4C3.2,12.4,2.7,11.1,2.4,9.6z M4.9,12.7h1.8c0.6-1.6,1.7-4.9,1.2-6.8c-0.4-1.7-1.5-3.2-2.1-4
			c-0.6,0.8-1.7,2.3-2.1,4C3.2,7.8,4.3,11.1,4.9,12.7z"/>
	</g>
	<g>
		<path d="M5.8,19.2c-0.3,0-0.6-0.2-0.7-0.5l-0.7-2.1c-0.1-0.2,0-0.5,0.1-0.7s0.4-0.3,0.6-0.3h1.4c0.2,0,0.5,0.1,0.6,0.3
			s0.2,0.4,0.1,0.7l-0.7,2.1C6.4,19,6.1,19.2,5.8,19.2z"/>
	</g>
	<g>
		<path d="M5.8,7.6c-0.3,0-0.6-0.1-0.9-0.4C4.5,6.8,4.5,6,4.9,5.5C5.4,5,6.2,5,6.7,5.5c0.5,0.5,0.5,1.3,0,1.8
			C6.5,7.5,6.1,7.6,5.8,7.6z M5.8,6.1c-0.1,0-0.1,0-0.2,0.1c-0.1,0.1-0.1,0.3,0,0.4c0.1,0.1,0.3,0.1,0.4,0c0.1-0.1,0.1-0.3,0-0.4
			C6,6.2,5.9,6.1,5.8,6.1z"/>
	</g>
</g>
</svg>
